<?xml version="1.0" standalone="no"?>
<!DOCTYPE svg PUBLIC "-//W3C//DTD SVG 20010904//EN"
 "http://www.w3.org/TR/2001/REC-SVG-20010904/DTD/svg10.dtd">
<svg version="1.0" xmlns="http://www.w3.org/2000/svg"
 width="256.000000pt" height="256.000000pt" viewBox="0 0 256.000000 256.000000"
 preserveAspectRatio="xMidYMid meet">

<g transform="translate(0.000000,256.000000) scale(0.100000,-0.100000)"
fill="#000000" stroke="none">
<path d="M1214 2546 c-33 -14 -70 -57 -98 -114 -13 -24 -14 -37 -6 -52 19 -35
48 -24 81 30 44 72 93 90 138 53 35 -30 701 -1194 701 -1226 0 -41 -15 -63
-51 -76 -42 -14 -1366 -16 -1404 -1 -37 14 -57 66 -41 105 7 17 134 240 281
495 148 255 270 474 273 485 4 25 -21 50 -42 42 -9 -4 -27 -24 -41 -47 l-25
-40 -424 0 c-422 0 -423 0 -466 -23 -30 -16 -51 -37 -67 -67 l-23 -43 0 -771
0 -772 23 -44 c14 -30 36 -53 62 -67 40 -23 43 -23 478 -23 l437 0 0 -22 c0
-54 -22 -252 -30 -274 -9 -22 -15 -24 -84 -24 -66 0 -75 -2 -81 -20 -16 -50
-16 -50 475 -50 491 0 491 0 475 50 -6 18 -15 20 -81 20 -69 0 -75 2 -84 24
-8 22 -30 220 -30 274 l0 22 438 0 c434 0 437 0 477 23 26 14 48 37 63 67 l22
44 0 772 0 771 -23 44 c-46 85 -33 83 -526 89 l-435 5 -78 135 c-42 74 -87
147 -99 163 -38 52 -120 71 -185 43z m-384 -602 c0 -3 -84 -150 -186 -327
-162 -278 -188 -329 -191 -372 -5 -60 18 -109 67 -142 l33 -23 726 0 726 0 36
24 c48 33 73 86 67 145 -4 37 -41 109 -192 368 -102 177 -186 325 -186 328 0
3 134 4 298 3 l297 -3 3 -577 2 -578 -234 0 c-200 0 -237 -2 -250 -16 -19 -18
-19 -20 -6 -45 10 -18 25 -19 325 -19 l315 0 0 -95 c0 -88 -2 -98 -24 -120
-14 -14 -41 -26 -67 -30 -24 -3 -543 -5 -1152 -3 l-1109 3 -24 28 c-22 25 -24
37 -24 123 l0 94 813 0 c619 0 816 3 825 12 16 16 15 33 -4 52 -14 14 -96 16
-750 16 l-734 0 0 573 c0 316 3 577 7 580 8 8 593 9 593 1z m654 -1586 c3 -18
8 -75 11 -126 3 -52 8 -107 12 -123 l6 -29 -233 0 -232 0 5 29 c4 16 9 71 12
123 3 51 8 108 11 126 l5 32 199 0 199 0 5 -32z"/>
<path d="M1178 619 c-22 -13 -23 -55 -2 -63 20 -8 188 -8 208 0 22 9 20 51 -3
64 -25 13 -181 13 -203 -1z"/>
<path d="M1224 2211 c-64 -39 -64 -42 -64 -304 0 -257 4 -277 54 -311 14 -9
45 -16 72 -16 39 0 51 5 80 34 l34 34 0 251 0 251 -33 36 c-41 45 -96 55 -143
25z"/>
<path d="M1194 1477 c-31 -28 -37 -41 -41 -83 -5 -60 18 -103 70 -127 44 -21
70 -21 114 0 52 24 75 67 70 127 -4 42 -10 55 -41 83 -30 28 -43 33 -86 33
-43 0 -56 -5 -86 -33z"/>
</g>
</svg>
