<svg xmlns="http://www.w3.org/2000/svg" width="563.211" height="337.97" viewBox="0 0 563.211 337.97">
  <g id="patient-waiting-medical-test-result-hospital_74855-6601" transform="translate(-33.679 -43.52)">
    <g id="_feebdaff" data-name="#feebdaff">
      <path id="Path_1" data-name="Path 1" d="M365.36,47.32c16.44-4.66,33.68-3.81,50.57-3.61,9.53,1.15,19.25.5,28.66,2.7,15.48,2.93,30.93,9.4,41.58,21.39a63.181,63.181,0,0,1,15.69,44.21c.44,10.62-5.06,21.18-1.6,31.7,4.46,15.85,17.57,26.78,29.7,36.9-7.66,6.15-13.86,13.85-19.61,21.76-2.06,2.95-3.46,6.28-5.19,9.42.5-5.94.19-11.91.32-17.86-.04-3.1.14-6.77-2.43-9.01-1.81-1.88-4.63-1.59-7-1.71-9.74.06-19.48.03-29.22.06-28.52.1-57.03-.03-85.55.04,2.48-4.31,1.53-9.61-.98-13.66-2.97-4.82-6.25-9.95-11.52-12.49-3.07-1.65-6.61-2.48-9.34-4.7-2.01-2.37-3-5.45-5.15-7.72-5.2-5.46-12.37-10.15-20.27-9.01-10.14.91-18.08,10.96-16.85,21.04a8.962,8.962,0,0,0-.64,8.32c.5,6.08.24,12.27,1.77,18.23-28.77-.09-57.53-.02-86.3-.03-7.11-.17-14.7,2.61-18.84,8.62-3.61,5.76-1.72,12.75-1.89,19.11-.26,7.22.56,14.51-.69,21.66-13.2-.18-26.39-.05-39.59-.12a22.562,22.562,0,0,0-19.54,10.76c-5.97,9.41-3.88,23.27,5.19,29.98,2.88,2.28,7.05,4.45,6.95,8.69.12,28.36-.07,56.73.09,85.09-.21,3.57,2.57,6.06,4.85,8.37-26.08-.08-52.15.1-78.23-.05-6.67-6.07-11.62-13.76-16.22-21.44.35-.44,1.03-1.32,1.38-1.76,10.68-15.7,20.86-31.75,30.79-47.94,3.87-6.14,3.88-13.64,5.79-20.45.05.28.14.85.19,1.13,2.73,18.96,5.37,37.95,9.31,56.7a135.57,135.57,0,0,0,4.56,16.7,79.835,79.835,0,0,1,14.42-.06q-1.38-66-2.89-131.98c1.38-.1,2.77-.2,4.15-.29q-.75-5.715-1.52-11.4,1.605-.465,3.21-.96l.38-.35c.42-.43,1.25-1.28,1.66-1.71.67.02,1.35.04,2.02.07-.11-.39-.33-1.17-.44-1.57.48-.42,1.45-1.25,1.93-1.67,1.4,1.16,2.78,2.34,4.16,3.54-1.64-.38-3.28-.77-4.92-1.15,1.13,1.25,2.25,2.51,3.38,3.77,5.8.3,11.59.97,17.4,1.06,1.71.03,3.79-.1,4.76-1.76,2.07-3.29,3.16-7.08,4.79-10.59.54.08,1.62.23,2.16.31,2.37-3.15,4.28-6.74,4.07-10.8-1.39.87-2.79,1.74-4.12,2.7l-1.47-1.94,2.19.16c.81-.96,1.64-1.9,2.47-2.85,2.54-5.36,4.93-10.81,6.93-16.4a27.588,27.588,0,0,0-10.45-1.21,13.574,13.574,0,0,0-15.47-1c-3.72-.34-9.23-2.01-11.4,2.15-2.49,4.83-4.31,9.96-6.54,14.91l-3.09-.16a78.979,78.979,0,0,1-2.15-15.74l1.65-1.45c-2.43-12.25-6.71-25.29-16.92-33.28-.47-.32-1.41-.95-1.88-1.26-1.08-.44-2.2-.79-3.3-1.16-.07-.55-.23-1.66-.3-2.21q-.1-1.935-.12-3.87c2.65-1.24,5.54-2.56,7.13-5.14a30.49,30.49,0,0,0,3.39-8.85c.84-.19,1.68-.36,2.52-.53.96-2.42,2.06-5.23-.2-7.33-.34-.49-1.01-1.48-1.35-1.97,1.09-5.71-.81-11.62-4.15-16.25,16.19-5.4,33.77-5.06,50.5-2.72,15.29,1.9,30.01,6.75,45.26,8.88,16.8,3.12,34.32,3.6,50.99-.56,8.96-2.16,17.27-6.29,25.46-10.4,6.24-3.14,11.56-7.73,17.4-11.5,14.91-10.3,29.68-21.93,47.56-26.5M147.24,213.11c.07,3.36,3.03-1.44,0,0m-19.08,146c.21.97.43,1.94.64,2.92a41.757,41.757,0,0,0-1.15,10.21c8.08-.03,16.17.25,24.25-.03,2.93-2.1-.64-5.75-3.07-6.47-2.58-1.51-4.55,1.14-6.3,2.61.7-1.13,2.09-3.38,2.78-4.51-1,.72-3.01,2.16-4.02,2.87-.14-.09-.43-.29-.58-.39.57-.83,1.71-2.49,2.28-3.31-1.37.89-4.11,2.69-5.48,3.59.92-1.16,2.75-3.48,3.67-4.64-.51,0-1.52.02-2.03.03-.05-.75-.15-2.26-.2-3.01C135.35,359.05,131.73,358.38,128.16,359.11Z" fill="#feebda"/>
      <path id="Path_2" data-name="Path 2" d="M68.57,130.61c4.3-6.68,9.25-13.32,15.9-17.8.52,3.63.73,7.38,1.93,10.86,1.29,3.53,5.68,1.41,8.4,2.47,3.14.88,7.6,3.14,9.59-.81-.29-.58-.86-1.72-1.15-2.29l1.83,1.07c.51,1.33,1.02,2.66,1.44,4.02.17.78.52,2.35.69,3.14a30.335,30.335,0,0,0,1.73,5.56c-3.05-3.19-8-2.3-11.42-.22C87.27,142.88,79.9,153,75.24,163.92a55.593,55.593,0,0,0,5.58,5.38c-1.18,1.37-2.43,2.83-2.5,4.73-.74,6.42-1.35,13.07.25,19.4.9,4.45,6.01,5.22,9.64,6.36-1.63,8.87-3.87,17.6-6.29,26.28l3.87.51a86.189,86.189,0,0,0-1.35,26.47c1.53,14.27,3.11,28.58,3.13,42.95.37,2.1-1.14,3.6-2.43,5.01a103.57,103.57,0,0,0-19.88,29.68c-3.28-2.3-3.9-6.39-4.97-9.95-5.8-18.14-9.51-36.9-12.08-55.75-1.56-12.61-2.96-25.27-2.99-38-.51-19.24.4-38.81,6.3-57.27C55.42,156.01,60.48,142.43,68.57,130.61Z" fill="#feebda"/>
      <path id="Path_3" data-name="Path 3" d="M533.1,184.58a14.961,14.961,0,0,1,3.56,1.82,162.466,162.466,0,0,1,19.89,19.01c6.83,8.65,12.29,18.69,14.28,29.62,4.13,18.57,1.81,37.71,2.81,56.54a184.249,184.249,0,0,0,3.68,23.36c2.54,7.52,4.65,15.18,7,22.77,2.87,12.83-.35,26.31-6.42,37.74-16.59.04-33.18.07-49.76-.02-5.4,0-10.73,1.25-16.14,1.05-6.8-.17-13.64.4-20.4-.51l1.26-.4c7.74-.42,15.5.12,23.24-.21,3.82-.13,7.72-3.31,7.63-7.33.22-10.69-.1-21.4.13-32.1,1.76-1.38,3.96-3.3,2.83-5.82-.95-2.78-4.5-1.6-6.66-1.9,11.38-6.45,21.6-15.13,28.84-26.11q-1.545-3.54-3.04-7.08c1.91.9,3.83,1.82,5.75,2.73a86.1,86.1,0,0,0,8.45-20.38c-2.12-1.03-4.23-2.07-6.33-3.1,2.64-1.11,5.28-2.2,7.94-3.28a106.04,106.04,0,0,0,1.56-30.79l-.91.42a64.635,64.635,0,0,0-16.65,9.04c-1.76-8.36-1.2-17.04-3.34-25.36-5.37-.05-10.78.37-16.08-.63,4.29-5.63,9.85-10.74,12-17.68C537.41,198.68,534.37,191.82,533.1,184.58Z" fill="#feebda"/>
      <path id="Path_4" data-name="Path 4" d="M396.23,232.98c6.74-1.97,13.82-1.06,20.73-1.23,15.14-.12,30.28.38,45.42.49,4.55.07,9.1-.09,13.66.09l.61.36-1.01.51c-21,.47-42.02.46-63.03.56-4.19.04-8.42-.19-12.56.55a21.438,21.438,0,0,0-16.31,20.7c-.19,36.93.01,73.86-.51,110.79a8.495,8.495,0,0,0,2.99,7.94c4.73,2.26,10.12,1.52,15.19,1.99a41,41,0,0,1-12.94.06c-1.26-.84-2.49-1.71-3.67-2.65a10.287,10.287,0,0,1-2.51-6.14q-.51-19.41-.55-38.83c-.17-24.05-.14-48.11-.21-72.16a22.907,22.907,0,0,1,2.07-10.42A23.2,23.2,0,0,1,396.23,232.98Z" fill="#feebda"/>
      <path id="Path_5" data-name="Path 5" d="M182.52,299.01a12.631,12.631,0,0,1,9.37-12.69c.58-.03,1.72-.1,2.29-.14-3.18.48-6.38,1.85-8.18,4.65-3.95,4.83-1.81,11.45-2.29,17.13.36,5.27-1.46,11.42,2.15,15.91,2.04,2.93,5.8,3.44,8.9,4.65l-.25.09c-.94.31-1.87.66-2.78,1.03-.64-.33-1.27-.66-1.89-1-2.7-2.88-6.49-5.31-7.04-9.56C182.17,312.42,182.64,305.7,182.52,299.01Z" fill="#feebda"/>
    </g>
    <g id="_323232ff" data-name="#323232ff">
      <path id="Path_6" data-name="Path 6" d="M100.4,89.26c7.94-5.8,20.68-6.66,27.79.86,3.34,4.63,5.24,10.54,4.15,16.25-.09.42-.28,1.25-.37,1.67a19.229,19.229,0,0,0-7.17-13.1,24.4,24.4,0,0,1-9.56,8.26c.28-1.31.83-3.94,1.11-5.25-5.91,5.41-12.76,10.55-20.96,11.45-2.51,2.29-.94,6.99,2.06,8.11a27.93,27.93,0,0,0,3.42.23,42.61,42.61,0,0,0,2.37,5.3c.29.57.86,1.71,1.15,2.29-1.99,3.95-6.45,1.69-9.59.81-2.72-1.06-7.11,1.06-8.4-2.47-1.2-3.48-1.41-7.23-1.93-10.86a3.617,3.617,0,0,1,2.09-3.06c3.59-1.55,4.39-6.35,8.66-6.84C95.4,98.03,96.09,92.34,100.4,89.26Z" fill="#323232"/>
      <path id="Path_7" data-name="Path 7" d="M53.55,358.67c1.61-3.07,4.31-5.32,6.59-7.87.43.29,1.3.85,1.73,1.14,2.5,1.78,4.99,3.59,7.54,5.31a9.126,9.126,0,0,0-3.49,2.59,19.139,19.139,0,0,0,3.63,0c.4.28,1.2.83,1.6,1.1-1.53.19-3.06.34-4.57.67a50.487,50.487,0,0,0,5.07.14l.03,1.2-3.81.52c2.29.45,5.43-.59,6.58,2.09,1.68,2.04,2.27,7.14-1.37,7.03C66.41,368.18,60.12,363.22,53.55,358.67Z" fill="#323232"/>
    </g>
    <g id="_fbc0bcff" data-name="#fbc0bcff">
      <path id="Path_8" data-name="Path 8" d="M124.8,94.94a19.229,19.229,0,0,1,7.17,13.1c.09-.42.28-1.25.37-1.67.34.49,1.01,1.48,1.35,1.97-3.11,1.19-3.27,6.51.2,7.33-.84.17-1.68.34-2.52.53-.2-.56-.59-1.68-.79-2.23-9.52,1.5-19.37,1-28.36-2.71,2.31,3.9,4.13,8.25,2.85,12.85l-1.83-1.07a42.61,42.61,0,0,1-2.37-5.3,27.93,27.93,0,0,1-3.42-.23c-3-1.12-4.57-5.82-2.06-8.11,8.2-.9,15.05-6.04,20.96-11.45-.28,1.31-.83,3.94-1.11,5.25a24.4,24.4,0,0,0,9.56-8.26M109.08,107.4c-1.17.26-1.24,2.07.2,1.29,1.34-.69,3.86-.01,4.58-1.36a5.148,5.148,0,0,0-4.78.07m13.38.27a45.844,45.844,0,0,1,7.7,1.45c-.81-.73-1.61-1.47-2.41-2.22a14.365,14.365,0,0,0-5.29.77m-10.93,2.72c-1.67,1.19,1.37,3.88,2.27,2.22,1.94-1.53-.86-4.15-2.27-2.22m13.76-.02c-2.33,1.2,2.03,4,2.4,1.58C128.7,110.47,126.22,108.92,125.29,110.37Z" fill="#fbc0bc"/>
      <path id="Path_9" data-name="Path 9" d="M305.33,289.15c2.05,1.12,4.07,2.3,6.03,3.58-2.06.39-4.14.69-6.22.89,1.27-.38,2.54-.75,3.82-1.11C307.73,291.38,306.54,290.28,305.33,289.15Z" fill="#fbc0bc"/>
    </g>
    <g id="_ae7b76ff" data-name="#ae7b76ff">
      <path id="Path_10" data-name="Path 10" d="M109.08,107.4a5.148,5.148,0,0,1,4.78-.07c-.72,1.35-3.24.67-4.58,1.36C107.84,109.47,107.91,107.66,109.08,107.4Z" fill="#ae7b76"/>
    </g>
    <g id="_b57f7cff" data-name="#b57f7cff">
      <path id="Path_11" data-name="Path 11" d="M122.46,107.67a14.365,14.365,0,0,1,5.29-.77c.8.75,1.6,1.49,2.41,2.22A45.844,45.844,0,0,0,122.46,107.67Z" fill="#b57f7c"/>
    </g>
    <g id="_eba299ff" data-name="#eba299ff">
      <path id="Path_12" data-name="Path 12" d="M133.89,115.67c-3.47-.82-3.31-6.14-.2-7.33C135.95,110.44,134.85,113.25,133.89,115.67Z" fill="#eba299"/>
    </g>
    <g id="_644641ff" data-name="#644641ff">
      <path id="Path_13" data-name="Path 13" d="M111.53,110.39c1.41-1.93,4.21.69,2.27,2.22C112.9,114.27,109.86,111.58,111.53,110.39Z" fill="#644641"/>
    </g>
    <g id="_343332ff" data-name="#343332ff">
      <path id="Path_14" data-name="Path 14" d="M125.29,110.37c.93-1.45,3.41.1,2.4,1.58C127.32,114.37,122.96,111.57,125.29,110.37Z" fill="#343332"/>
      <path id="Path_15" data-name="Path 15" d="M331.49,154.4c2.9-1.9,6.26-1.05,8.5,1.42A19.945,19.945,0,0,0,331.49,154.4Z" fill="#343332"/>
      <path id="Path_16" data-name="Path 16" d="M321.56,158.53c.53-1.47,3.53.09,2.38,1.36C323.62,162.38,319.54,160.1,321.56,158.53Z" fill="#343332"/>
      <path id="Path_17" data-name="Path 17" d="M332.21,158.22q2.07-1.38,2.79.89C335.2,161.81,330.66,160.55,332.21,158.22Z" fill="#343332"/>
      <path id="Path_18" data-name="Path 18" d="M316.53,165.09c.85.08,2.56.25,3.41.33,1.25,7.85,8.06,14.39,16.2,14.28.08.85.22,2.55.3,3.41-2.23.43-4.45.89-6.63,1.52a39.936,39.936,0,0,0-8.87,4.77,28.77,28.77,0,0,1-2.64-6.08C316.77,177.36,317.03,171.17,316.53,165.09Z" fill="#343332"/>
    </g>
    <g id="_fefefdff" data-name="#fefefdff">
      <path id="Path_19" data-name="Path 19" d="M102.22,111.26c8.99,3.71,18.84,4.21,28.36,2.71.2.55.59,1.67.79,2.23a30.49,30.49,0,0,1-3.39,8.85c-1.59,2.58-4.48,3.9-7.13,5.14-4.9,1.18-9.89.11-14.34-2.06-.42-1.36-.93-2.69-1.44-4.02C106.35,119.51,104.53,115.16,102.22,111.26Z" fill="#fefefd"/>
      <path id="Path_20" data-name="Path 20" d="M216.88,286.47c16.38-.31,32.76-.05,49.12-.84l-.19.99C249.5,286.81,233.18,286.9,216.88,286.47Z" fill="#fefefd"/>
    </g>
    <g id="_f29997ff" data-name="#f29997ff">
      <path id="Path_21" data-name="Path 21" d="M106.51,128.13c4.45,2.17,9.44,3.24,14.34,2.06q.015,1.935.12,3.87c-4.77.27-9.72.01-13.77-2.79C107.03,130.48,106.68,128.91,106.51,128.13Z" fill="#f29997"/>
    </g>
    <g id="_fbc0bbff" data-name="#fbc0bbff">
      <path id="Path_22" data-name="Path 22" d="M107.2,131.27c4.05,2.8,9,3.06,13.77,2.79.07.55.23,1.66.3,2.21,1.1.37,2.22.72,3.3,1.16l-.92.03c-.19,3.27-.23,6.55-.36,9.83-5.11-3.02-9.69-6.82-14.36-10.46A30.335,30.335,0,0,1,107.2,131.27Z" fill="#fbc0bb"/>
    </g>
    <g id="_3660acff" data-name="#3660acff">
      <path id="Path_23" data-name="Path 23" d="M97.51,136.61c3.42-2.08,8.37-2.97,11.42.22,4.67,3.64,9.25,7.44,14.36,10.46.13-3.28.17-6.56.36-9.83l.92-.03c.47.31,1.41.94,1.88,1.26,3.02,4.68,6.9,8.89,8.68,14.26,2.95,7.22,2.35,15.12,2.93,22.73-1.33,8.11.69,16.22.74,24.35v1.14c-6.3-.52-11.94-3.83-18.24-4.38-6.32-.85-12.4-2.88-18.53-4.56-3.8-1.23-7.83-2-11.31-4.03-1.53-.87-.91-2.83-.84-4.22a67.982,67.982,0,0,1,2.18-8.79c1.57-.09,3.13-.16,4.7-.24l.67-4.59c-.01,4.8-3.74,3.39-6.27,3.14a30.677,30.677,0,0,1-10.34-4.2,55.593,55.593,0,0,1-5.58-5.38C79.9,153,87.27,142.88,97.51,136.61Z" fill="#3660ac"/>
      <path id="Path_24" data-name="Path 24" d="M88.21,199.79c9.94,2.77,20.34,3.51,30.23,6.33,5.99,2.8,12.86.92,18.99,3,.06,1.4.11,2.81.17,4.22l2.66,1.27q.78,5.685,1.52,11.4c-1.38.09-2.77.19-4.15.29q-7.035.54-14.07.86c-12.57.65-25.26,1.04-37.77-.58l-3.87-.51C84.34,217.39,86.58,208.66,88.21,199.79Z" fill="#3660ac"/>
      <path id="Path_25" data-name="Path 25" d="M562.29,240.61l.91-.42a106.04,106.04,0,0,1-1.56,30.79c-2.66,1.08-5.3,2.17-7.94,3.28,2.1,1.03,4.21,2.07,6.33,3.1a86.1,86.1,0,0,1-8.45,20.38c-1.92-.91-3.84-1.83-5.75-2.73q1.5,3.54,3.04,7.08c-7.24,10.98-17.46,19.66-28.84,26.11-4.42.2-8.85.09-13.26-.09C522.26,297.2,539.34,266.68,562.29,240.61Z" fill="#3660ac"/>
    </g>
    <g id="_333233ff" data-name="#333233ff">
      <path id="Path_26" data-name="Path 26" d="M317.17,156.77c-1.23-10.08,6.71-20.13,16.85-21.04,7.9-1.14,15.07,3.55,20.27,9.01,2.15,2.27,3.14,5.35,5.15,7.72,2.73,2.22,6.27,3.05,9.34,4.7,5.27,2.54,8.55,7.67,11.52,12.49,2.51,4.05,3.46,9.35.98,13.66-1.12,1.31-2.34,2.54-3.52,3.8-7.54-4.97-16.84-5.92-25.65-6.06l-1.91-.13c-.7-1.72-1.28-3.49-1.82-5.26-.16-.53-.48-1.58-.64-2.11a27.727,27.727,0,0,0,3.36-8.11c2.17-.14,4.76-.28,5.82-2.55,1.72-2.41.89-7.28-2.79-6.86-4.59.02-8.52-2.58-12.34-4.79a58.307,58.307,0,0,1-11.58-9.23c-3.22,4.63-7.81,7.93-11.9,11.71,2.19.11,4.37.21,6.56.35-2.09.52-4.19.99-6.25,1.59-.03.73-.1,2.19-.14,2.92C318.15,158.13,317.5,157.22,317.17,156.77Z" fill="#333233"/>
    </g>
    <g id="_1c4b75ff" data-name="#1c4b75ff">
      <path id="Path_27" data-name="Path 27" d="M126.45,138.69c10.21,7.99,14.49,21.03,16.92,33.28l-1.65,1.45c-1.19.81-2.44,1.51-3.66,2.26-.58-7.61.02-15.51-2.93-22.73C133.35,147.58,129.47,143.37,126.45,138.69Z" fill="#1c4b75"/>
    </g>
    <g id="_fdc0bbff" data-name="#fdc0bbff">
      <path id="Path_28" data-name="Path 28" d="M330.21,142.01a58.307,58.307,0,0,0,11.58,9.23c3.82,2.21,7.75,4.81,12.34,4.79,3.68-.42,4.51,4.45,2.79,6.86-1.06,2.27-3.65,2.41-5.82,2.55a27.727,27.727,0,0,1-3.36,8.11,19.009,19.009,0,0,1-11.6,6.15c-8.14.11-14.95-6.43-16.2-14.28-.5-2.28-.93-4.57-1.46-6.84.04-.73.11-2.19.14-2.92,2.06-.6,4.16-1.07,6.25-1.59-2.19-.14-4.37-.24-6.56-.35,4.09-3.78,8.68-7.08,11.9-11.71m1.28,12.39a19.945,19.945,0,0,1,8.5,1.42c-2.24-2.47-5.6-3.32-8.5-1.42m-9.93,4.13c-2.02,1.57,2.06,3.85,2.38,1.36,1.15-1.27-1.85-2.83-2.38-1.36m10.65-.31c-1.55,2.33,2.99,3.59,2.79.89q-.72-2.265-2.79-.89m-7.67,10.84c.94,1.25,1.88,2.49,2.83,3.74a15.138,15.138,0,0,0,5.45-2.95C330.25,168.44,327.32,168.84,324.54,169.06Z" fill="#fdc0bb"/>
    </g>
    <g id="_f29795ff" data-name="#f29795ff">
      <path id="Path_29" data-name="Path 29" d="M316.53,165.09a8.962,8.962,0,0,1,.64-8.32c.33.45.98,1.36,1.31,1.81.53,2.27.96,4.56,1.46,6.84C319.09,165.34,317.38,165.17,316.53,165.09Z" fill="#f29795"/>
    </g>
    <g id="_f4aaa6ff" data-name="#f4aaa6ff">
      <path id="Path_30" data-name="Path 30" d="M324.54,169.06c2.78-.22,5.71-.62,8.28.79a15.138,15.138,0,0,1-5.45,2.95C326.42,171.55,325.48,170.31,324.54,169.06Z" fill="#f4aaa6"/>
    </g>
    <g id="_fdbfbcff" data-name="#fdbfbcff">
      <path id="Path_31" data-name="Path 31" d="M78.32,174.03c.07-1.9,1.32-3.36,2.5-4.73a30.677,30.677,0,0,0,10.34,4.2c2.53.25,6.26,1.66,6.27-3.14l-.67,4.59c-1.57.08-3.13.15-4.7.24a67.982,67.982,0,0,0-2.18,8.79c-.07,1.39-.69,3.35.84,4.22,3.48,2.03,7.51,2.8,11.31,4.03,6.13,1.68,12.21,3.71,18.53,4.56-.82,3.09-1.51,6.2-2.12,9.33-9.89-2.82-20.29-3.56-30.23-6.33-3.63-1.14-8.74-1.91-9.64-6.36C76.97,187.1,77.58,180.45,78.32,174.03Z" fill="#fdbfbc"/>
    </g>
    <g id="_d3ebe9ff" data-name="#d3ebe9ff">
      <path id="Path_32" data-name="Path 32" d="M164.9,172.26a13.574,13.574,0,0,1,15.47,1C175.54,174.97,169.14,175.69,164.9,172.26Z" fill="#d3ebe9"/>
    </g>
    <g id="_fe5b7dff" data-name="#fe5b7dff">
      <path id="Path_33" data-name="Path 33" d="M153.5,174.41c2.17-4.16,7.68-2.49,11.4-2.15,4.24,3.43,10.64,2.71,15.47,1a27.588,27.588,0,0,1,10.45,1.21c-2,5.59-4.39,11.04-6.93,16.4-.83.95-1.66,1.89-2.47,2.85l-2.19-.16,1.47,1.94c-.34.27-1.02.82-1.36,1.09-.48.68-.95,1.36-1.41,2.05.63.62,1.26,1.25,1.89,1.88-.31.69-.92,2.08-1.23,2.77-1.63,3.51-2.72,7.3-4.79,10.59-.97,1.66-3.05,1.79-4.76,1.76-5.81-.09-11.6-.76-17.4-1.06-1.13-1.26-2.25-2.52-3.38-3.77,1.64.38,3.28.77,4.92,1.15-1.38-1.2-2.76-2.38-4.16-3.54l.46-.36c1.7.49,3.35,1.08,5.04,1.62-2.86-2.24-5.82-4.35-8.83-6.39,1.7-1.04,3.39-2.07,5.07-3.13-1.87.06-3.74.17-5.62.18l-2.7-.16c1.38-3.67,2.94-7.27,4.52-10.86C149.19,184.37,151.01,179.24,153.5,174.41Z" fill="#fe5b7d"/>
      <path id="Path_34" data-name="Path 34" d="M376.66,253.15l.36-.17c1.21,5.19,3.11,10.52,1.66,15.89-.94,7.97-7.3,14.45-14.86,16.61-3.03.67-6.03,1.49-9.06,2.19-14.07,2.61-28.37,3.54-42.61,4.63,1.68,12.47,3.36,24.93,5.18,37.37.45,3.19.9,6.37,1.2,9.58a84.978,84.978,0,0,0-9.08,2.01c-3,1-6.08,2.21-9.3,1.5-5.13-2.01-7.1-7.4-9.37-11.93-5.96-14.2-11.76-29.23-10.66-44.91.51-8.98,5.1-18.17,13.29-22.43,6.15-2.82,13.05-2.84,19.63-3.84a85.4,85.4,0,0,1,15.39-1.43c9.97,1.7,20.19,1.34,30.2.16,6.16-1.08,12.39-2.41,18.03-5.23m-71.33,36c1.21,1.13,2.4,2.23,3.63,3.36-1.28.36-2.55.73-3.82,1.11,2.08-.2,4.16-.5,6.22-.89C309.4,291.45,307.38,290.27,305.33,289.15Z" fill="#fe5b7d"/>
    </g>
    <g id="_fcc0baff" data-name="#fcc0baff">
      <path id="Path_35" data-name="Path 35" d="M138.06,175.68c1.22-.75,2.47-1.45,3.66-2.26a78.979,78.979,0,0,0,2.15,15.74l3.09.16c-1.58,3.59-3.14,7.19-4.52,10.86l2.7.16a49.762,49.762,0,0,1-6.34-.31C138.75,191.9,136.73,183.79,138.06,175.68Z" fill="#fcc0ba"/>
    </g>
    <g id="_faa5a0ff" data-name="#faa5a0ff">
      <path id="Path_36" data-name="Path 36" d="M336.14,179.7a19.009,19.009,0,0,0,11.6-6.15c.16.53.48,1.58.64,2.11a15.239,15.239,0,0,1-11.94,7.45C336.36,182.25,336.22,180.55,336.14,179.7Z" fill="#faa5a0"/>
    </g>
    <g id="_fdc0bcff" data-name="#fdc0bcff">
      <path id="Path_37" data-name="Path 37" d="M336.44,183.11a15.239,15.239,0,0,0,11.94-7.45c.54,1.77,1.12,3.54,1.82,5.26l1.91.13c-4,6.33-9.27,11.72-14.16,17.34a46.56,46.56,0,0,1-8.14-13.76C331.99,184,334.21,183.54,336.44,183.11Z" fill="#fdc0bc"/>
    </g>
    <g id="_c3f2faff" data-name="#c3f2faff">
      <path id="Path_38" data-name="Path 38" d="M529.96,180.61c.64-.51,1.28-1.01,1.94-1.49-.12.35-.36,1.04-.48,1.39-6.74,19.93-12.19,40.28-17.15,60.72a579.442,579.442,0,0,0-13.56,69.57q-1.095,7.905-1.46,15.88c1.84.09,3.69.19,5.54.3l-.26,1.16c-2.99.08-5.99.15-8.98.1-.84-3.17-1.65-6.35-2.31-9.55-1.19-5.81-2.17-11.65-2.98-17.52-.34-2.64-.66-5.27-.85-7.92.78-8.72,1.95-17.69.19-26.36.01-2.03.03-4.07.13-6.1a140.431,140.431,0,0,1,3.04-17.02c3.96,2.81,7.28,6.37,11.12,9.31a193.99,193.99,0,0,0-6.55-19.26l-1.09-.74c1.49-7.63,5.24-14.53,8.91-21.29,1.73-3.14,3.13-6.47,5.19-9.42C516.1,194.46,522.3,186.76,529.96,180.61Z" fill="#c3f2fa"/>
    </g>
    <g id="_9eecf6ff" data-name="#9eecf6ff">
      <path id="Path_39" data-name="Path 39" d="M352.11,181.05c8.81.14,18.11,1.09,25.65,6.06,7.23,5.52,11.69,13.81,15.08,22.08-1.52.89-3.04,1.8-4.57,2.66a75.37,75.37,0,0,1-18.2,6.87,48.547,48.547,0,0,1,3.68,8.47c-.12,4.93-.49,9.89.28,14.79a97.626,97.626,0,0,1,1.43,9.78,114.8,114.8,0,0,1-28.43,5.42c-5.83.18-11.66-.14-17.48.31-.63.02-1.87.05-2.49.07,1.93-6.68,1.65-13.69,1.34-20.55a49.638,49.638,0,0,0-2.89-14.72c-.49-1.27-1.05-2.5-1.6-3.73a90.03,90.03,0,0,1-11.81-2.67c-.66-.18-2-.53-2.67-.71-1.3-9.91,4.15-19.53,11.51-25.78a39.936,39.936,0,0,1,8.87-4.77,46.56,46.56,0,0,0,8.14,13.76C342.84,192.77,348.11,187.38,352.11,181.05Z" fill="#9eecf6"/>
    </g>
    <g id="_9fedf6ff" data-name="#9fedf6ff">
      <path id="Path_40" data-name="Path 40" d="M514.27,241.23c4.96-20.44,10.41-40.79,17.15-60.72.57,1.34,1.24,2.67,1.68,4.07,1.27,7.24,4.31,14.1,5.12,21.4-2.15,6.94-7.71,12.05-12,17.68,5.3,1,10.71.58,16.08.63,2.14,8.32,1.58,17,3.34,25.36a90.322,90.322,0,0,0-8.14,7.01c.29,3.55.49,7.12.61,10.68q-2.64-2.715-5.23-5.46c-15.52,18.33-23.7,41.77-28.09,65.1-1.85-.11-3.7-.21-5.54-.3q.375-7.965,1.46-15.88A579.442,579.442,0,0,1,514.27,241.23Z" fill="#9fedf6"/>
    </g>
    <g id="_feb546ff" data-name="#feb546ff">
      <path id="Path_41" data-name="Path 41" d="M213.16,191.91c4.14-6.01,11.73-8.79,18.84-8.62,28.77.01,57.53-.06,86.3.03a28.77,28.77,0,0,0,2.64,6.08c-7.36,6.25-12.81,15.87-11.51,25.78.67.18,2.01.53,2.67.71q-1.635,2.91-3.28,5.82c-10.68-1.49-21.14-4.2-31.67-6.45-4.64-1.21-9.69-1.73-13.63-4.7-2.33-1.66-4.67-3.32-7.09-4.84.01,1.53.03,3.07.04,4.61-2.13.14-4.27.27-6.4.41.72.87,1.45,1.74,2.18,2.62-1.45.6-2.91,1.2-4.35,1.82,1.5.05,3.02.12,4.53.15-1.38,1.2-.72,2.93-.58,4.47,4.78.09,9.9-1.33,14.38.9a243.841,243.841,0,0,0,31.31,12.19c4.94,1.38,9.96,3.23,15.17,2.85,2.34-.13,3.89-2.17,5.3-3.8,2.45-3.26,4.63-6.74,7.5-9.65a49.638,49.638,0,0,1,2.89,14.72c.31,6.86.59,13.87-1.34,20.55-10.42.45-20.66,2.92-31.04,3.85-3.63.28-7.32-.03-10.89.81-10.39,3.06-17.86,12.76-19.13,23.41-16.36.79-32.74.53-49.12.84,16.3.43,32.62.34,48.93.15-1.22,14.49,3.09,28.75,8.59,41.99-16.12-.65-32.27-.19-48.4-.3-10.49.24-21.01-.42-31.49.3l.25-.09c-3.1-1.21-6.86-1.72-8.9-4.65-3.61-4.49-1.79-10.64-2.15-15.91.48-5.68-1.66-12.3,2.29-17.13,1.8-2.8,5-4.17,8.18-4.65,5.61-.04,11.22.29,16.82-.12-.03-17.47.15-34.93-.02-52.4-10.73-.35-21.49-.46-32.22.13,3.8,2.97,8.03,5.78,10.26,10.22,2.83,4.83,3.06,10.57,3.01,16.02-.1,8.77-.02,17.53-.14,26.29a12.631,12.631,0,0,0-9.37,12.69c.12,6.69-.35,13.41.28,20.07.55,4.25,4.34,6.68,7.04,9.56.62.34,1.25.67,1.89,1,.59,11.77.06,23.55.29,35.33.24,3.39-1.28,6.45-2.86,9.33-6.34,1.24-12.79,1.26-19.22,1.15h-1.41c-2.28-2.31-5.06-4.8-4.85-8.37-.16-28.36.03-56.73-.09-85.09.1-4.24-4.07-6.41-6.95-8.69-9.07-6.71-11.16-20.57-5.19-29.98a22.562,22.562,0,0,1,19.54-10.76c13.2.07,26.39-.06,39.59.12,1.25-7.15.43-14.44.69-21.66C211.44,204.66,209.55,197.67,213.16,191.91Z" fill="#feb546"/>
      <path id="Path_42" data-name="Path 42" d="M377.76,187.11c1.18-1.26,2.4-2.49,3.52-3.8,28.52-.07,57.03.06,85.55-.04-1.89,1.85-4.18,3.8-4.02,6.72-.51,14.07.49,28.19-.43,42.25-15.14-.11-30.28-.61-45.42-.49-6.91.17-13.99-.74-20.73,1.23q-4.44-10.395-7.96-21.13c1.53-.86,3.05-1.77,4.57-2.66C389.45,200.92,384.99,192.63,377.76,187.11Z" fill="#feb546"/>
      <path id="Path_43" data-name="Path 43" d="M377.02,252.98c-.3-7.88-3.31-15.7-1.75-23.57a129.392,129.392,0,0,1,8.33,16.18,22.907,22.907,0,0,0-2.07,10.42c.07,24.05.04,48.11.21,72.16-19.93.38-39.86.14-59.78.05a6.24,6.24,0,0,0-4.63,1.45c-1.82-12.44-3.5-24.9-5.18-37.37,14.24-1.09,28.54-2.02,42.61-4.63,6.92-.27,13.91.31,20.74-1.09a72.611,72.611,0,0,0-11.68-1.1c7.56-2.16,13.92-8.64,14.86-16.61C380.13,263.5,378.23,258.17,377.02,252.98Z" fill="#feb546"/>
      <path id="Path_44" data-name="Path 44" d="M383.74,255.01a21.438,21.438,0,0,1,16.31-20.7c4.14-.74,8.37-.51,12.56-.55,2.82,2.05,5.81,3.93,8.23,6.47,7.47,8.1,7.27,21.64.38,30.03-2.5,2.86-5.99,4.58-8.65,7.27-1.8,1.62-1.52,4.25-1.68,6.44.07,27.35-.05,54.72.04,82.08.16,3.08-1.46,5.78-2.96,8.34-7.26.09-14.49-.9-21.75-.65a8.495,8.495,0,0,1-2.99-7.94C383.75,328.87,383.55,291.94,383.74,255.01Z" fill="#feb546"/>
    </g>
    <g id="_ea9e3cff" data-name="#ea9e3cff">
      <path id="Path_45" data-name="Path 45" d="M466.83,183.27c9.74-.03,19.48,0,29.22-.06,2.37.12,5.19-.17,7,1.71,2.57,2.24,2.39,5.91,2.43,9.01-.13,5.95.18,11.92-.32,17.86-3.67,6.76-7.42,13.66-8.91,21.29a19.009,19.009,0,0,1-3.93-3.33c-1.83-.11-3.65-.18-5.47-.23-.18.6-.56,1.8-.74,2.4-.83-.69-2.31-1.17-3.11-.2l-.54.49c.3-3.73.94-8.05-1.98-10.96-.94.06-2.84.2-3.78.27-.76,1.08-1.52,2.16-2.26,3.25.07.77.22,2.31.3,3.08.44,1.49.88,2.98,1.3,4.48-4.56-.18-9.11-.02-13.66-.09.92-14.06-.08-28.18.43-42.25C462.65,187.07,464.94,185.12,466.83,183.27Z" fill="#ea9e3c"/>
      <path id="Path_46" data-name="Path 46" d="M412.61,233.76c21.01-.1,42.03-.09,63.03-.56-.42.23-1.25.7-1.66.93-.86-.15-2.58-.46-3.43-.62l-1.26.38a28.557,28.557,0,0,0,.4,10.97c-1.32.18-2.63.36-3.94.53-3.27,6.12.16,14.39,6.71,16.51.53.21,1.58.64,2.11.85-.09,2.88.02,5.82-1.18,8.51-.76-1.91-1.47-3.8-2.18-5.72-1.89-.04-3.78-.07-5.66-.07a13.719,13.719,0,0,0,10.06,15.27c0,.48-.01,1.45-.01,1.93-.02,2.06-.02,4.11,0,6.17-1.14-.78-2.28-1.55-3.43-2.28-2.69-1.09-4.97.53-6.91,2.22.48,2.33.55,4.96,2.23,6.83,3.23,4.32,8.77,5.43,13.56,7.18.9,2.55,1.83,5.1,2.78,7.63-2.4-.71-4.8-2.33-7.38-1.9-3.96,1.26-3.67,6.75-1.3,9.38,3.29,3.59,8.49,4.17,13.09,4.47,3.31-.16,4.15,3.82,6.04,5.83-3.23.42-8.55-1.46-9.77,2.76-.05,1.71,1.47,2.87,2.23,4.28a18.825,18.825,0,0,1,.87,5.73c-.01,9.02-.17,18.04-.02,27.06-.11,2.27,1.27,4.14,2.37,6-3.32.28-6.64.5-9.96.47-24.01-.14-48.02.1-72.03-.11,1.5-2.56,3.12-5.26,2.96-8.34-.09-27.36.03-54.73-.04-82.08.16-2.19-.12-4.82,1.68-6.44,2.66-2.69,6.15-4.41,8.65-7.27,6.89-8.39,7.09-21.93-.38-30.03C418.42,237.69,415.43,235.81,412.61,233.76Z" fill="#ea9e3c"/>
      <path id="Path_47" data-name="Path 47" d="M178.76,233.79c10.73-.59,21.49-.48,32.22-.13.17,17.47-.01,34.93.02,52.4-5.6.41-11.21.08-16.82.12-.57.04-1.71.11-2.29.14.12-8.76.04-17.52.14-26.29.05-5.45-.18-11.19-3.01-16.02C186.79,239.57,182.56,236.76,178.76,233.79Z" fill="#ea9e3c"/>
    </g>
    <g id="_fdfbfaff" data-name="#fdfbfaff">
      <path id="Path_48" data-name="Path 48" d="M180.7,195.5c1.33-.96,2.73-1.83,4.12-2.7.21,4.06-1.7,7.65-4.07,10.8-.54-.08-1.62-.23-2.16-.31.31-.69.92-2.08,1.23-2.77-.63-.63-1.26-1.26-1.89-1.88.46-.69.93-1.37,1.41-2.05C179.68,196.32,180.36,195.77,180.7,195.5Z" fill="#fdfbfa"/>
    </g>
    <g id="_fcfdfdff" data-name="#fcfdfdff">
      <path id="Path_49" data-name="Path 49" d="M120.56,196.79c6.3.55,11.94,3.86,18.24,4.38v-1.14a49.762,49.762,0,0,0,6.34.31c1.88-.01,3.75-.12,5.62-.18-1.68,1.06-3.37,2.09-5.07,3.13,3.01,2.04,5.97,4.15,8.83,6.39-1.69-.54-3.34-1.13-5.04-1.62l-.46.36c-.48.42-1.45,1.25-1.93,1.67.11.4.33,1.18.44,1.57-.67-.03-1.35-.05-2.02-.07-.41.43-1.24,1.28-1.66,1.71-2.18-1.33-4.29-2.77-6.42-4.18-6.13-2.08-13-.2-18.99-3C119.05,202.99,119.74,199.88,120.56,196.79Z" fill="#fcfdfd"/>
      <path id="Path_50" data-name="Path 50" d="M271.75,359.03c1.6-1.76,3.16-3.55,4.92-5.15.35-.14,1.06-.4,1.42-.54a38,38,0,0,1,4.72,3.48c-1.51-.7-3-1.44-4.47-2.19-.64.4-1.28.81-1.91,1.22,1.46.82,2.9,1.73,4.34,2.61a20.824,20.824,0,0,0-6.76-1.53c1.55.99,3.13,1.97,4.72,2.93C276.47,359.18,274.11,358,271.75,359.03Z" fill="#fcfdfd"/>
    </g>
    <g id="_fec0baff" data-name="#fec0baff">
      <path id="Path_51" data-name="Path 51" d="M256.43,205.72c2.42,1.52,4.76,3.18,7.09,4.84,3.94,2.97,8.99,3.49,13.63,4.7,10.53,2.25,20.99,4.96,31.67,6.45q1.65-2.91,3.28-5.82a90.03,90.03,0,0,0,11.81,2.67c.55,1.23,1.11,2.46,1.6,3.73-2.87,2.91-5.05,6.39-7.5,9.65-1.41,1.63-2.96,3.67-5.3,3.8-5.21.38-10.23-1.47-15.17-2.85a243.841,243.841,0,0,1-31.31-12.19c-4.48-2.23-9.6-.81-14.38-.9-.14-1.54-.8-3.27.58-4.47-1.51-.03-3.03-.1-4.53-.15,1.44-.62,2.9-1.22,4.35-1.82-.73-.88-1.46-1.75-2.18-2.62,2.13-.14,4.27-.27,6.4-.41C256.46,208.79,256.44,207.25,256.43,205.72Z" fill="#fec0ba"/>
      <path id="Path_52" data-name="Path 52" d="M370.07,218.72a75.37,75.37,0,0,0,18.2-6.87q3.54,10.725,7.96,21.13a23.2,23.2,0,0,0-12.63,12.61,129.392,129.392,0,0,0-8.33-16.18c-.5-.75-1.01-1.49-1.52-2.22A48.547,48.547,0,0,0,370.07,218.72Z" fill="#fec0ba"/>
      <path id="Path_53" data-name="Path 53" d="M275.34,330.91c.97,2.34,2,4.65,3.07,6.95,3.69-.33,7.41-.54,11.13-.51a30.038,30.038,0,0,0,1.24,11.38c-3.48,1.35-7.01,2.55-10.52,3.81C278.98,345.25,278.68,337.67,275.34,330.91Z" fill="#fec0ba"/>
    </g>
    <g id="_bf7093ff" data-name="#bf7093ff">
      <path id="Path_54" data-name="Path 54" d="M137.43,209.12c2.13,1.41,4.24,2.85,6.42,4.18l-.38.35q-1.605.5-3.21.96l-2.66-1.27C137.54,211.93,137.49,210.52,137.43,209.12Z" fill="#bf7093"/>
    </g>
    <g id="_ca7a87ff" data-name="#ca7a87ff">
      <path id="Path_55" data-name="Path 55" d="M147.24,213.11C150.27,211.67,147.31,216.47,147.24,213.11Z" fill="#ca7a87"/>
    </g>
    <g id="_05cbbfff" data-name="#05cbbfff">
      <path id="Path_56" data-name="Path 56" d="M474.44,224.77c.74-1.09,1.5-2.17,2.26-3.25.94-.07,2.84-.21,3.78-.27,2.92,2.91,2.28,7.23,1.98,10.96-.45,2.01-.88,4-1.24,6.03-1.29-1.3-2.61-2.54-3.82-3.9q-.375-.84-.75-1.65l-.61-.36c-.42-1.5-.86-2.99-1.3-4.48C474.66,227.08,474.51,225.54,474.44,224.77Z" fill="#05cbbf"/>
    </g>
    <g id="_214786ff" data-name="#214786ff">
      <path id="Path_57" data-name="Path 57" d="M85.79,226.58c12.51,1.62,25.2,1.23,37.77.58a9.861,9.861,0,0,0-2.66,5.82c-1.65,9.96-3.48,19.89-5.17,29.85-1.24,7.35-3.09,14.64-3.5,22.11-.05-.28-.14-.85-.19-1.13-1.91,6.81-1.92,14.31-5.79,20.45-9.93,16.19-20.11,32.24-30.79,47.94-.71-.25-2.12-.73-2.83-.98a54.046,54.046,0,0,1-10.24-5.31c-.47-.32-1.41-.95-1.89-1.27a108.131,108.131,0,0,1,4.76-13.95,103.57,103.57,0,0,1,19.88-29.68c1.29-1.41,2.8-2.91,2.43-5.01-.02-14.37-1.6-28.68-3.13-42.95A86.189,86.189,0,0,1,85.79,226.58Z" fill="#214786"/>
    </g>
    <g id="_122f5bff" data-name="#122f5bff">
      <path id="Path_58" data-name="Path 58" d="M123.56,227.16q7.035-.315,14.07-.86,1.44,65.985,2.89,131.98a79.835,79.835,0,0,0-14.42.06,135.57,135.57,0,0,1-4.56-16.7c-3.94-18.75-6.58-37.74-9.31-56.7.41-7.47,2.26-14.76,3.5-22.11,1.69-9.96,3.52-19.89,5.17-29.85A9.861,9.861,0,0,1,123.56,227.16Z" fill="#122f5b"/>
    </g>
    <g id="_d7c88eff" data-name="#d7c88eff">
      <path id="Path_59" data-name="Path 59" d="M373.75,227.19c.51.73,1.02,1.47,1.52,2.22-1.56,7.87,1.45,15.69,1.75,23.57l-.36.17-1.1.14-.1-1.53a97.626,97.626,0,0,0-1.43-9.78C373.26,237.08,373.63,232.12,373.75,227.19Z" fill="#d7c88e"/>
    </g>
    <g id="_06cbc0ff" data-name="#06cbc0ff">
      <path id="Path_60" data-name="Path 60" d="M486.85,229.52c1.82.05,3.64.12,5.47.23.23,2.49.29,4.99.29,7.49-.68.81-1.37,1.63-2.06,2.44-2.85.04-6.12.61-8.25-1.73,1.13-1.53,2.2-3.11,3.19-4.74.15-.32.46-.97.62-1.29C486.29,231.32,486.67,230.12,486.85,229.52Z" fill="#06cbc0"/>
      <path id="Path_61" data-name="Path 61" d="M482.49,284.34c1.05-.01,2.1-.03,3.16-.05,2.3,2.55,2.94,5.89,2.89,9.24a22.9,22.9,0,0,1-4.74,5.5c-.58-.07-1.75-.2-2.33-.27l.78-4.74a50.934,50.934,0,0,1-2.09-7.02C480.93,286.11,481.71,285.23,482.49,284.34Z" fill="#06cbc0"/>
    </g>
    <g id="_e9a03eff" data-name="#e9a03eff">
      <path id="Path_62" data-name="Path 62" d="M492.32,229.75a19.009,19.009,0,0,0,3.93,3.33l1.09.74a193.99,193.99,0,0,1,6.55,19.26c-3.84-2.94-7.16-6.5-11.12-9.31a140.431,140.431,0,0,0-3.04,17.02c-.37,2.25-.87,4.47-1.29,6.71q-1.245.3-2.46.6c-.61.14-1.82.43-2.43.57-3.33,1.64-3.9,5.41-4.47,8.69-1.16.12-2.32.24-3.46.37-.19-6.1-.15-12.21-.1-18.31,2.94-.12,6.22.48,8.81-1.3.35-.19,1.04-.57,1.39-.76,2.14-2.47,1.94-5.82,2.07-8.87a8.4,8.4,0,0,0-6.99.14c-.45,1.32-.92,2.64-1.4,3.95a13.654,13.654,0,0,1,.71-6.64c1.34-4.22,6.18-3.01,9.2-5.06l1.24-1.2c.69-.81,1.38-1.63,2.06-2.44C492.61,234.74,492.55,232.24,492.32,229.75Z" fill="#e9a03e"/>
    </g>
    <g id="_add19bff" data-name="#add19bff">
      <path id="Path_63" data-name="Path 63" d="M483,231.72c.8-.97,2.28-.49,3.11.2-.16.32-.47.97-.62,1.29C484.87,232.84,483.62,232.09,483,231.72Z" fill="#add19b"/>
    </g>
    <g id="_d3ab5aff" data-name="#d3ab5aff">
      <path id="Path_64" data-name="Path 64" d="M476.65,232.69q.375.81.75,1.65c.92,2.7,3.01,4.75,4.15,7.34,2.59-.17,5.18-.42,7.76-.8-3.02,2.05-7.86.84-9.2,5.06.12-.61.37-1.85.49-2.47-.64-.78-1.3-1.55-1.96-2.3a60.05,60.05,0,0,0-2.18,5.63c0-4.31.22-9.02-2.48-12.67.41-.23,1.24-.7,1.66-.93Z" fill="#d3ab5a"/>
    </g>
    <g id="_a4bc81ff" data-name="#a4bc81ff">
      <path id="Path_65" data-name="Path 65" d="M482.46,232.21l.54-.49c.62.37,1.87,1.12,2.49,1.49-.99,1.63-2.06,3.21-3.19,4.74,2.13,2.34,5.4,1.77,8.25,1.73l-1.24,1.2c-2.58.38-5.17.63-7.76.8-1.14-2.59-3.23-4.64-4.15-7.34,1.21,1.36,2.53,2.6,3.82,3.9C481.58,236.21,482.01,234.22,482.46,232.21Z" fill="#a4bc81"/>
    </g>
    <g id="_adab62ff" data-name="#adab62ff">
      <path id="Path_66" data-name="Path 66" d="M469.29,233.89l1.26-.38c-.03,3.58-1.15,7.71,1.29,10.78a22.421,22.421,0,0,0,4.46,4.18l.16-1.67a60.05,60.05,0,0,1,2.18-5.63c.66.75,1.32,1.52,1.96,2.3-.12.62-.37,1.86-.49,2.47a13.654,13.654,0,0,0-.71,6.64c-.73,1.77-2.23,3.05-3.38,4.52-.25.56-.74,1.66-.98,2.22-3.68-1.78-2.35-6.14-3.16-9.39-.51-3.1-3.34-4.23-6.13-4.54,1.31-.17,2.62-.35,3.94-.53A28.557,28.557,0,0,1,469.29,233.89Z" fill="#adab62"/>
    </g>
    <g id="_08cac0ff" data-name="#08cac0ff">
      <path id="Path_67" data-name="Path 67" d="M470.55,233.51c.85.16,2.57.47,3.43.62,2.7,3.65,2.48,8.36,2.48,12.67l-.16,1.67a22.421,22.421,0,0,1-4.46-4.18C469.4,241.22,470.52,237.09,470.55,233.51Z" fill="#08cac0"/>
    </g>
    <g id="_618acfff" data-name="#618acfff">
      <path id="Path_68" data-name="Path 68" d="M545.64,249.65a64.635,64.635,0,0,1,16.65-9.04c-22.95,26.07-40.03,56.59-55.52,87.5-.56.01-1.68.02-2.24.03l.26-1.16c4.39-23.33,12.57-46.77,28.09-65.1q2.595,2.745,5.23,5.46c-.12-3.56-.32-7.13-.61-10.68A90.322,90.322,0,0,1,545.64,249.65Z" fill="#618acf"/>
    </g>
    <g id="_65af83ff" data-name="#65af83ff">
      <path id="Path_69" data-name="Path 69" d="M472.46,261.9c-6.55-2.12-9.98-10.39-6.71-16.51,2.79.31,5.62,1.44,6.13,4.54a16.738,16.738,0,0,0-5.3-3.87c-.16,2.63-.57,5.31-.04,7.94C467.97,256.98,470.35,259.38,472.46,261.9Z" fill="#65af83"/>
    </g>
    <g id="_05cabbff" data-name="#05cabbff">
      <path id="Path_70" data-name="Path 70" d="M466.58,246.06a16.738,16.738,0,0,1,5.3,3.87c.81,3.25-.52,7.61,3.16,9.39-.21,1.13-.36,2.28-.47,3.43-.53-.21-1.58-.64-2.11-.85-2.11-2.52-4.49-4.92-5.92-7.9C466.01,251.37,466.42,248.69,466.58,246.06Z" fill="#05cabb"/>
    </g>
    <g id="_05cbc0ff" data-name="#05cbc0ff">
      <path id="Path_71" data-name="Path 71" d="M480.8,248.63a8.4,8.4,0,0,1,6.99-.14c-.13,3.05.07,6.4-2.07,8.87-.35.19-1.04.57-1.39.76-2.78-.32-5.54-.72-8.31-1.02,1.15-1.47,2.65-2.75,3.38-4.52C479.88,251.27,480.35,249.95,480.8,248.63Z" fill="#05cbc0"/>
    </g>
    <g id="_c6d3e3ff" data-name="#c6d3e3ff">
      <path id="Path_72" data-name="Path 72" d="M347.03,257.18a114.8,114.8,0,0,0,28.43-5.42l.1,1.53c-3.58.53-6.99,1.77-10.51,2.56-11.59,2.8-23.7,2.91-35.5,1.64C335.37,257.04,341.2,257.36,347.03,257.18Z" fill="#c6d3e3"/>
    </g>
    <g id="_d57b94ff" data-name="#d57b94ff">
      <path id="Path_73" data-name="Path 73" d="M365.05,255.85c3.52-.79,6.93-2.03,10.51-2.56l1.1-.14c-5.64,2.82-11.87,4.15-18.03,5.23-10.01,1.18-20.23,1.54-30.2-.16-.35-.17-1.03-.49-1.37-.66.62-.02,1.86-.05,2.49-.07C341.35,258.76,353.46,258.65,365.05,255.85Z" fill="#d57b94"/>
    </g>
    <g id="_08cabaff" data-name="#08cabaff">
      <path id="Path_74" data-name="Path 74" d="M475.04,259.32c.24-.56.73-1.66.98-2.22,2.77.3,5.53.7,8.31,1.02-2.59,1.78-5.87,1.18-8.81,1.3-.05,6.1-.09,12.21.1,18.31,0,1,0,2-.01,3.01a13.719,13.719,0,0,1-10.06-15.27c1.88,0,3.77.03,5.66.07.71,1.92,1.42,3.81,2.18,5.72,1.2-2.69,1.09-5.63,1.18-8.51C474.68,261.6,474.83,260.45,475.04,259.32Z" fill="#08caba"/>
    </g>
    <g id="_df3067ff" data-name="#df3067ff">
      <path id="Path_75" data-name="Path 75" d="M296.02,261.41c10.38-.93,20.62-3.4,31.04-3.85.34.17,1.02.49,1.37.66a85.4,85.4,0,0,0-15.39,1.43c-6.58,1-13.48,1.02-19.63,3.84-8.19,4.26-12.78,13.45-13.29,22.43-1.1,15.68,4.7,30.71,10.66,44.91-.33,2.18-.84,4.34-1.24,6.52-3.72-.03-7.44.18-11.13.51-1.07-2.3-2.1-4.61-3.07-6.95-.24-.58-.71-1.73-.94-2.3-5.5-13.24-9.81-27.5-8.59-41.99l.19-.99c1.27-10.65,8.74-20.35,19.13-23.41C288.7,261.38,292.39,261.69,296.02,261.41Z" fill="#df3067"/>
    </g>
    <g id="_aab888ff" data-name="#aab888ff">
      <path id="Path_76" data-name="Path 76" d="M488.44,267.5c.42-2.24.92-4.46,1.29-6.71-.1,2.03-.12,4.07-.13,6.1-1.04,6.35-.82,12.79-.67,19.2q-.66-.81-1.32-1.59a12.966,12.966,0,0,0-.32-7.4,12.24,12.24,0,0,0-1.31-9Q487.2,267.8,488.44,267.5Z" fill="#aab888"/>
    </g>
    <g id="_dbead1ff" data-name="#dbead1ff">
      <path id="Path_77" data-name="Path 77" d="M488.93,286.09c-.15-6.41-.37-12.85.67-19.2,1.76,8.67.59,17.64-.19,26.36l-.08-1.06C489.18,290.15,489.01,288.12,488.93,286.09Z" fill="#dbead1"/>
    </g>
    <g id="_07cbbcff" data-name="#07cbbcff">
      <path id="Path_78" data-name="Path 78" d="M479.08,277.36c.57-3.28,1.14-7.05,4.47-8.69.61-.14,1.82-.43,2.43-.57a12.24,12.24,0,0,1,1.31,9c-2.1,2.75-5.49,3.65-8.61,4.63l-.57.19c-.63.19-1.88.57-2.51.75,0-.48.01-1.45.01-1.93.01-1.01.01-2.01.01-3.01C476.76,277.6,477.92,277.48,479.08,277.36Z" fill="#07cbbc"/>
    </g>
    <g id="_dfa249ff" data-name="#dfa249ff">
      <path id="Path_79" data-name="Path 79" d="M478.68,281.73c3.12-.98,6.51-1.88,8.61-4.63a12.966,12.966,0,0,1,.32,7.4c-1.64-.83-3.49-2.02-5.38-1.26-2.09.7-2.67,3.11-3.58,4.87-.11-2.07-.38-4.13-.54-6.19Z" fill="#dfa249"/>
    </g>
    <g id="_b7af62ff" data-name="#b7af62ff">
      <path id="Path_80" data-name="Path 80" d="M475.6,282.67c.63-.18,1.88-.56,2.51-.75.16,2.06.43,4.12.54,6.19-.25,1.72-.51,3.45-.76,5.17-.45.03-1.35.08-1.81.11-1.27-2.07-2.72-4.02-3.98-6.09l.07-.74c1.15.73,2.29,1.5,3.43,2.28C475.58,286.78,475.58,284.73,475.6,282.67Z" fill="#b7af62"/>
    </g>
    <g id="_85b57bff" data-name="#85b57bff">
      <path id="Path_81" data-name="Path 81" d="M482.23,283.24c1.89-.76,3.74.43,5.38,1.26q.66.78,1.32,1.59c.08,2.03.25,4.06.4,6.1l-.79,1.34c.05-3.35-.59-6.69-2.89-9.24-1.06.02-2.11.04-3.16.05-.78.89-1.56,1.77-2.33,2.66a50.934,50.934,0,0,0,2.09,7.02l-.78,4.74c-.66-.08-1.97-.26-2.63-.35-.9-1.69-1.78-3.38-2.76-5.02.46-.03,1.36-.08,1.81-.11.25-1.72.51-3.45.76-5.17C479.56,286.35,480.14,283.94,482.23,283.24Z" fill="#85b57b"/>
    </g>
    <g id="_fec078ff" data-name="#fec078ff">
      <path id="Path_82" data-name="Path 82" d="M354.76,287.67c3.03-.7,6.03-1.52,9.06-2.19a72.611,72.611,0,0,1,11.68,1.1C368.67,287.98,361.68,287.4,354.76,287.67Z" fill="#fec078"/>
    </g>
    <g id="_8cae72ff" data-name="#8cae72ff">
      <path id="Path_83" data-name="Path 83" d="M465.26,288.78c1.94-1.69,4.22-3.31,6.91-2.22l-.07.74c-1.48.6-3.31.59-4.49,1.76a6.581,6.581,0,0,0,1.77,6.58c3.7,3.7,9.17,5.17,14.3,4.67.17,1.95.54,3.87.85,5.81,1-1.08,1.99-2.17,3.05-3.19-.94,4.63,1.89,8.85,1.81,13.33-2.19.53-3.85-1.74-5.63-2.65-1.14-1.18-2.3-2.33-3.45-3.48-2.47-.08-4.82.48-6.22,2.7,1.6,2.59,2.93,6.16,6.35,6.73a57.3,57.3,0,0,0,10.95,1.03c.46-.48,1.39-1.43,1.85-1.9.66,3.2,1.47,6.38,2.31,9.55l-1.27-.04c-1.89-2.01-2.73-5.99-6.04-5.83-4.6-.3-9.8-.88-13.09-4.47-2.37-2.63-2.66-8.12,1.3-9.38,2.58-.43,4.98,1.19,7.38,1.9-.95-2.53-1.88-5.08-2.78-7.63-4.79-1.75-10.33-2.86-13.56-7.18C465.81,293.74,465.74,291.11,465.26,288.78Z" fill="#8cae72"/>
    </g>
    <g id="_05ccc0ff" data-name="#05ccc0ff">
      <path id="Path_84" data-name="Path 84" d="M467.61,289.06c1.18-1.17,3.01-1.16,4.49-1.76,1.26,2.07,2.71,4.02,3.98,6.09.98,1.64,1.86,3.33,2.76,5.02.66.09,1.97.27,2.63.35.58.07,1.75.2,2.33.27l-.12,1.28c-5.13.5-10.6-.97-14.3-4.67A6.581,6.581,0,0,1,467.61,289.06Z" fill="#05ccc0"/>
    </g>
    <g id="_e3a244ff" data-name="#e3a244ff">
      <path id="Path_85" data-name="Path 85" d="M488.54,293.53l.79-1.34.08,1.06c.19,2.65.51,5.28.85,7.92l-2.68,1.76c-1.06,1.02-2.05,2.11-3.05,3.19-.31-1.94-.68-3.86-.85-5.81l.12-1.28A22.9,22.9,0,0,0,488.54,293.53Z" fill="#e3a244"/>
    </g>
    <g id="_1cc5b4ff" data-name="#1cc5b4ff">
      <path id="Path_86" data-name="Path 86" d="M487.58,302.93l2.68-1.76c.81,5.87,1.79,11.71,2.98,17.52-.46.47-1.39,1.42-1.85,1.9a57.3,57.3,0,0,1-10.95-1.03c3.5-.38,7.01-.79,10.54-.85a38.279,38.279,0,0,1-4.79-.95,41.232,41.232,0,0,1-2.43-4.15c1.78.91,3.44,3.18,5.63,2.65C489.47,311.78,486.64,307.56,487.58,302.93Z" fill="#1cc5b4"/>
    </g>
    <g id="_07cac1ff" data-name="#07cac1ff">
      <path id="Path_87" data-name="Path 87" d="M474.09,312.83c1.4-2.22,3.75-2.78,6.22-2.7,1.15,1.15,2.31,2.3,3.45,3.48a41.232,41.232,0,0,0,2.43,4.15,38.279,38.279,0,0,0,4.79.95c-3.53.06-7.04.47-10.54.85C477.02,318.99,475.69,315.42,474.09,312.83Z" fill="#07cac1"/>
    </g>
    <g id="_ea9e3dff" data-name="#ea9e3dff">
      <path id="Path_88" data-name="Path 88" d="M194.51,328.61c10.48-.72,21-.06,31.49-.3,16.13.11,32.28-.35,48.4.3.23.57.7,1.72.94,2.3,3.34,6.76,3.64,14.34,4.92,21.63-.72.27-1.45.53-2.17.8-.36.14-1.07.4-1.42.54-1.76,1.6-3.32,3.39-4.92,5.15-1.19,1.28-2.33,2.6-3.5,3.89.22,1.53.47,3.06.77,4.58.16.53.48,1.59.64,2.11,8.76-2.78,17.63-5.36,26.17-8.77.03-.49.11-1.48.14-1.98-1.63-3.43-3.57-6.7-5.19-10.13a30.038,30.038,0,0,1-1.24-11.38c.4-2.18.91-4.34,1.24-6.52,2.27,4.53,4.24,9.92,9.37,11.93.94,4.9,3.27,9.73,1.55,14.78a13.036,13.036,0,0,0-3.62,7.25,47.876,47.876,0,0,0-.75,5.72c-.08.86-.26,2.58-.34,3.44-12.68.42-25.36-.53-38.03-.01-18.66-.21-37.32-.05-55.98-.1a115.911,115.911,0,0,0-13.82.46c1.58-2.88,3.1-5.94,2.86-9.33-.23-11.78.3-23.56-.29-35.33C192.64,329.27,193.57,328.92,194.51,328.61Z" fill="#ea9e3d"/>
      <path id="Path_89" data-name="Path 89" d="M317.33,329.67a6.24,6.24,0,0,1,4.63-1.45c19.92.09,39.85.33,59.78-.05q.06,19.425.55,38.83a10.287,10.287,0,0,0,2.51,6.14,66.168,66.168,0,0,1-12.81.75c-22.48-.34-44.99.47-67.46-.43,4.58-4.73,10.27-8.49,13.61-14.31,1.17-1.29,2.33-2.58,3.44-3.91-.31-.3-.94-.9-1.26-1.2-2.72-2.46-5.56-4.78-8.49-6.98-.81-1.93-1.61-3.86-2.38-5.8a84.978,84.978,0,0,1,9.08-2.01C318.23,336.04,317.78,332.86,317.33,329.67Z" fill="#ea9e3d"/>
    </g>
    <g id="_de3267ff" data-name="#de3267ff">
      <path id="Path_90" data-name="Path 90" d="M484.51,330.96c1.22-4.22,6.54-2.34,9.77-2.76l1.27.04c2.99.05,5.99-.02,8.98-.1.56-.01,1.68-.02,2.24-.03,4.41.18,8.84.29,13.26.09,2.16.3,5.71-.88,6.66,1.9,1.13,2.52-1.07,4.44-2.83,5.82-.23,10.7.09,21.41-.13,32.1.09,4.02-3.81,7.2-7.63,7.33-7.74.33-15.5-.21-23.24.21l-.44-1.67a116.209,116.209,0,0,0,22.61.67c2.95-.11,6.18-1.4,7.43-4.26a20.854,20.854,0,0,0,.73-6.34q-.09-14.475-.03-28.94c-12.14.12-24.29-.3-36.42.22C485.98,333.83,484.46,332.67,484.51,330.96Z" fill="#de3267"/>
    </g>
    <g id="_fe5a7dff" data-name="#fe5a7dff">
      <path id="Path_91" data-name="Path 91" d="M486.74,335.24c12.13-.52,24.28-.1,36.42-.22q-.075,14.475.03,28.94a20.854,20.854,0,0,1-.73,6.34c-1.25,2.86-4.48,4.15-7.43,4.26a116.209,116.209,0,0,1-22.61-.67c-.62.03-1.85.1-2.46.14-1.1-1.86-2.48-3.73-2.37-6-.15-9.02.01-18.04.02-27.06A18.825,18.825,0,0,0,486.74,335.24Z" fill="#fe5a7d"/>
    </g>
    <g id="_fdbfbaff" data-name="#fdbfbaff">
      <path id="Path_92" data-name="Path 92" d="M300.15,342.76c3.22.71,6.3-.5,9.3-1.5.77,1.94,1.57,3.87,2.38,5.8-2.77,2.51-5.58,4.98-8.48,7.35-.18.51-.53,1.53-.71,2.04,1.65.23,3.32.5,4.97.77-2.16.27-4.31.58-6.44.99,1.7.59,3.42,1.19,5.15,1.73a34.942,34.942,0,0,0-4.23.3,22.343,22.343,0,0,0-4.01,4.55,13.036,13.036,0,0,1,3.62-7.25C303.42,352.49,301.09,347.66,300.15,342.76Z" fill="#fdbfba"/>
    </g>
    <g id="_fdc0baff" data-name="#fdc0baff">
      <path id="Path_93" data-name="Path 93" d="M62.39,345.91a54.046,54.046,0,0,0,10.24,5.31c-1.15,1.96-2.24,3.97-3.22,6.03-2.55-1.72-5.04-3.53-7.54-5.31C60.2,350.16,61.97,347.81,62.39,345.91Z" fill="#fdc0ba"/>
    </g>
    <g id="_56769eff" data-name="#56769eff">
      <path id="Path_94" data-name="Path 94" d="M303.35,354.41c2.9-2.37,5.71-4.84,8.48-7.35,2.93,2.2,5.77,4.52,8.49,6.98a235.471,235.471,0,0,1-20.55,18.89c-.82-.8-1.63-1.62-2.44-2.42a47.876,47.876,0,0,1,.75-5.72,22.343,22.343,0,0,1,4.01-4.55,34.942,34.942,0,0,1,4.23-.3c-1.73-.54-3.45-1.14-5.15-1.73,2.13-.41,4.28-.72,6.44-.99-1.65-.27-3.32-.54-4.97-.77C302.82,355.94,303.17,354.92,303.35,354.41Z" fill="#56769e"/>
    </g>
    <g id="_55759eff" data-name="#55759eff">
      <path id="Path_95" data-name="Path 95" d="M290.78,348.73c1.62,3.43,3.56,6.7,5.19,10.13-8.87,3.2-17.73,6.6-26.95,8.64-.3-1.52-.55-3.05-.77-4.58,1.17-1.29,2.31-2.61,3.5-3.89,2.36-1.03,4.72.15,6.98.83-1.59-.96-3.17-1.94-4.72-2.93a20.824,20.824,0,0,1,6.76,1.53c-1.44-.88-2.88-1.79-4.34-2.61.63-.41,1.27-.82,1.91-1.22,1.47.75,2.96,1.49,4.47,2.19a38,38,0,0,0-4.72-3.48c.72-.27,1.45-.53,2.17-.8C283.77,351.28,287.3,350.08,290.78,348.73Z" fill="#55759e"/>
    </g>
    <g id="_323233ff" data-name="#323233ff">
      <path id="Path_96" data-name="Path 96" d="M320.32,354.04c.32.3.95.9,1.26,1.2-1.11,1.33-2.27,2.62-3.44,3.91-5.98,4.67-11.13,10.29-17.07,15.01-.33-.31-.98-.92-1.3-1.23A235.471,235.471,0,0,0,320.32,354.04Z" fill="#323233"/>
      <path id="Path_97" data-name="Path 97" d="M127.65,372.24a41.757,41.757,0,0,1,1.15-10.21c3.45.01,6.9.01,10.35-.04.51-.01,1.52-.03,2.03-.03-.92,1.16-2.75,3.48-3.67,4.64,1.37-.9,4.11-2.7,5.48-3.59-.57.82-1.71,2.48-2.28,3.31.15.1.44.3.58.39,1.01-.71,3.02-2.15,4.02-2.87-.69,1.13-2.08,3.38-2.78,4.51,1.75-1.47,3.72-4.12,6.3-2.61,2.43.72,6,4.37,3.07,6.47C143.82,372.49,135.73,372.21,127.65,372.24Z" fill="#323233"/>
    </g>
    <g id="_979397ff" data-name="#979397ff">
      <path id="Path_98" data-name="Path 98" d="M69.41,357.25c1.06.72,1.11,1.58.14,2.59a19.139,19.139,0,0,1-3.63,0A9.126,9.126,0,0,1,69.41,357.25Z" fill="#979397"/>
    </g>
    <g id="_fcc1bdff" data-name="#fcc1bdff">
      <path id="Path_99" data-name="Path 99" d="M128.16,359.11c3.57-.73,7.19-.06,10.79-.13.05.75.15,2.26.2,3.01-3.45.05-6.9.05-10.35.04C128.59,361.05,128.37,360.08,128.16,359.11Z" fill="#fcc1bd"/>
    </g>
    <g id="_383a40ff" data-name="#383a40ff">
      <path id="Path_100" data-name="Path 100" d="M269.02,367.5c9.22-2.04,18.08-5.44,26.95-8.64-.03.5-.11,1.49-.14,1.98-8.54,3.41-17.41,5.99-26.17,8.77C269.5,369.09,269.18,368.03,269.02,367.5Z" fill="#383a40"/>
    </g>
    <g id="_d09f59ff" data-name="#d09f59ff">
      <path id="Path_101" data-name="Path 101" d="M301.07,374.16c5.94-4.72,11.09-10.34,17.07-15.01-3.34,5.82-9.03,9.58-13.61,14.31,22.47.9,44.98.09,67.46.43a66.168,66.168,0,0,0,12.81-.75c1.18.94,2.41,1.81,3.67,2.65-16.81-.49-33.65-.04-50.47-.19-56.02-.08-112.04.17-168.06-.15,6.43.11,12.88.09,19.22-1.15a115.911,115.911,0,0,1,13.82-.46c18.66.05,37.32-.11,55.98.1,12.67-.52,25.35.43,38.03.01.08-.86.26-2.58.34-3.44.81.8,1.62,1.62,2.44,2.42C300.09,373.24,300.74,373.85,301.07,374.16Z" fill="#d09f59"/>
    </g>
    <g id="_ddb273ff" data-name="#ddb273ff">
      <path id="Path_102" data-name="Path 102" d="M386.22,373.74c7.26-.25,14.49.74,21.75.65,24.01.21,48.02-.03,72.03.11,3.32.03,6.64-.19,9.96-.47.61-.04,1.84-.11,2.46-.14l.44,1.67-1.26.4c-30.06-.48-60.13-.02-90.19-.23C396.34,375.26,390.95,376,386.22,373.74Z" fill="#ddb273"/>
    </g>
    <g id="_c4dfe7ff" data-name="#c4dfe7ff">
      <path id="Path_103" data-name="Path 103" d="M34.1,376.06c1.12-.8,2.59-.55,3.87-.67q26.16.15,52.33.01c26.08.15,52.15-.03,78.23.05h1.41c56.02.32,112.04.07,168.06.15,16.82.15,33.66-.3,50.47.19a41,41,0,0,0,12.94-.06c30.06.21,60.13-.25,90.19.23,6.76.91,13.6.34,20.4.51,5.41.2,10.74-1.05,16.14-1.05,16.58.09,33.17.06,49.76.02,5.67.11,11.36-.18,17.03.1,2.95-.11,1.56,3.58,1.96,5.43a57.521,57.521,0,0,1-9.9.47q-270.015-.03-540.01-.02c-3.99-.06-8.01.3-11.98-.2C33.11,380.16,33.68,377.77,34.1,376.06Z" fill="#c4dfe7"/>
    </g>
  </g>
</svg>
